HIERARCHY
ROOT Hips
{
	OFFSET 0.000000 0.000000 0.000000
	CHANNELS 6 Xposition Yposition Zposition Xrotation Yrotation Zrotation
	JOINT LeftUpLeg_virtual
	{
		OFFSET 0.000000 0.000000 0.000000
		CHANNELS 3 Xrotation Yrotation Zrotation
		JOINT LeftUpLeg
		{
			OFFSET 10.205400 -3.823500 0.155100
			CHANNELS 3 Xrotation Yrotation Zrotation
			JOINT LeftLeg
			{
				OFFSET 0.708757 -12.982077 0.567790
				CHANNELS 3 Xrotation Yrotation Zrotation
				JOINT LeftFoot
				{
					OFFSET -0.708756 -10.717838 -2.184338
					CHANNELS 3 Xrotation Yrotation Zrotation
					JOINT LeftToeBase
					{
						OFFSET 0.108149 -7.191104 7.560241
						CHANNELS 3 Xrotation Yrotation Zrotation
						JOINT LeftToe_End
						{
							OFFSET 0.070230 0.081724 4.490308
							CHANNELS 3 Xrotation Yrotation Zrotation
							End Site
							{
								OFFSET 0 0 0
							}
						}
					}
				}
			}
		}
	}
	JOINT RightUpLeg_virtual
	{
		OFFSET 0.000000 0.000000 0.000000
		CHANNELS 3 Xrotation Yrotation Zrotation
		JOINT RightUpLeg
		{
			OFFSET -10.205400 -3.823500 0.005500
			CHANNELS 3 Xrotation Yrotation Zrotation
			JOINT RightLeg
			{
				OFFSET -0.708756 -12.982134 0.610632
				CHANNELS 3 Xrotation Yrotation Zrotation
				JOINT RightFoot
				{
					OFFSET 0.708754 -10.717769 -1.945823
					CHANNELS 3 Xrotation Yrotation Zrotation
					JOINT RightToeBase
					{
						OFFSET -0.108140 -7.191069 7.372968
						CHANNELS 3 Xrotation Yrotation Zrotation
						JOINT RightToe_End
						{
							OFFSET -0.070227 0.081735 4.479403
							CHANNELS 3 Xrotation Yrotation Zrotation
							End Site
							{
								OFFSET 0 0 0
							}
						}
					}
				}
			}
		}
	}
	JOINT Spine_virtual
	{
		OFFSET 0.000000 0.000000 0.000000
		CHANNELS 3 Xrotation Yrotation Zrotation
		JOINT Spine
		{
			OFFSET 0.000000 6.876099 0.125700
			CHANNELS 3 Xrotation Yrotation Zrotation
			JOINT Spine1
			{
				OFFSET 0.000000 5.730043 0.104720
				CHANNELS 3 Xrotation Yrotation Zrotation
				JOINT Spine1_split
				{
					OFFSET 0.000000 5.730043 0.104720
					CHANNELS 3 Xrotation Yrotation Zrotation
					JOINT Spine2
					{
						OFFSET 0.000000 5.730043 0.104720
						CHANNELS 3 Xrotation Yrotation Zrotation
						JOINT Neck_virtual
						{
							OFFSET 0.000000 0.000000 0.000000
							CHANNELS 3 Xrotation Yrotation Zrotation
							JOINT Neck
							{
								OFFSET 0.000000 10.314075 0.188496
								CHANNELS 3 Xrotation Yrotation Zrotation
								JOINT Head
								{
									OFFSET 0.000000 7.643700 -2.377400
									CHANNELS 3 Xrotation Yrotation Zrotation
									JOINT HeadTop_End
									{
										OFFSET 0.000000 43.788605 -13.619600
										CHANNELS 3 Xrotation Yrotation Zrotation
										End Site
										{
											OFFSET 0 0 0
										}
									}
								}
							}
						}
						JOINT LeftShoulder_virtual
						{
							OFFSET 0.000000 0.000000 0.000000
							CHANNELS 3 Xrotation Yrotation Zrotation
							JOINT LeftShoulder
							{
								OFFSET 2.196100 4.412489 0.087492
								CHANNELS 3 Xrotation Yrotation Zrotation
								JOINT LeftShoulder_split
								{
									OFFSET 2.196100 4.412489 0.087492
									CHANNELS 3 Xrotation Yrotation Zrotation
									JOINT LeftArm
									{
										OFFSET 8.771219 -2.981674 -0.026999
										CHANNELS 3 Xrotation Yrotation Zrotation
										JOINT LeftForeArm
										{
											OFFSET 8.512804 0.000000 -0.000000
											CHANNELS 3 Xrotation Yrotation Zrotation
											JOINT LeftHand
											{
												OFFSET 18.484802 0.000000 -0.000000
												CHANNELS 3 Xrotation Yrotation Zrotation
												End Site
												{
													OFFSET 0 0 0
												}
											}
										}
									}
								}
							}
						}
						JOINT RightShoulder_virtual
						{
							OFFSET 0.000000 0.000000 0.000000
							CHANNELS 3 Xrotation Yrotation Zrotation
							JOINT RightShoulder
							{
								OFFSET -2.196100 4.412496 0.070690
								CHANNELS 3 Xrotation Yrotation Zrotation
								JOINT RightShoulder_split
								{
									OFFSET -2.196100 4.412496 0.070690
									CHANNELS 3 Xrotation Yrotation Zrotation
									JOINT RightArm
									{
										OFFSET -8.771282 -2.981682 -0.094208
										CHANNELS 3 Xrotation Yrotation Zrotation
										JOINT RightForeArm
										{
											OFFSET -8.494598 0.000000 0.000000
											CHANNELS 3 Xrotation Yrotation Zrotation
											JOINT RightHand
											{
												OFFSET -18.483803 0.000000 0.000001
												CHANNELS 3 Xrotation Yrotation Zrotation
												End Site
												{
													OFFSET 0 0 0
												}
											}
										}
									}
								}
							}
						}
					}
				}
			}
		}
	}
}
MOTION
Frames: 10
Frame Time: 0.03333333
0.140182 31.958359 -5.716587 0.000000 0.000000 0.000000 -115.647916 -70.009781 -105.096373 -85.351895 17.993240 -4.115931 106.094674 11.751354 0.085781 41.936723 0.697598 -23.626444 -0.000014 -0.000006 0.000019 0.000000 0.000000 0.000000 -115.647916 -70.009781 -105.096373 -16.773346 -7.079729 -11.922379 64.858520 7.783910 -11.714270 -31.071944 7.076899 0.524859 -0.022718 0.000026 0.000005 0.000000 0.000000 0.000000 -115.647916 -70.009781 -105.096373 9.819747 -0.415926 -5.200158 18.906128 -3.761474 -3.874848 0.000000 0.000000 0.000000 0.000000 0.000000 0.000000 18.723649 -4.522469 -3.853603 -6.461462 12.605962 -8.795019 1.562247 50.648926 -14.327631 0.000000 0.000000 0.000000 18.723649 -4.522469 -3.853603 0.282735 0.179162 13.071988 0.000000 0.000000 0.000000 32.111315 -78.597090 9.811044 -0.000187 -85.945172 -0.000139 0.000000 0.000000 0.000000 18.723649 -4.522469 -3.853603 0.992074 2.041763 -6.269904 0.000000 0.000000 0.000000 18.277323 16.487278 79.854078 -179.999991 66.348075 179.999978 0.000000 0.000000 0.000000 
0.128227 31.709309 -5.581924 0.000000 0.000000 0.000000 -110.738390 -71.968365 -100.600340 -83.668725 18.202319 -4.399406 103.520676 12.111846 0.047091 41.491347 1.809617 -24.289614 -0.000013 -0.000001 0.000007 0.000000 0.000000 0.000000 -110.738390 -71.968365 -100.600340 -17.923156 -8.042046 -12.248576 65.990631 7.681796 -11.621385 -32.469749 6.232626 0.709844 -0.128556 -0.000025 0.000005 0.000000 0.000000 0.000000 -110.738390 -71.968365 -100.600340 9.419318 -0.869755 -4.765662 18.151091 -4.588263 -3.461614 0.000000 0.000000 0.000000 0.000000 0.000000 0.000000 17.925026 -5.334601 -3.476041 -6.324829 12.662493 -9.030811 0.977408 50.880866 -13.975551 0.000000 0.000000 0.000000 17.925026 -5.334601 -3.476041 0.399607 -0.159356 13.088191 0.000000 0.000000 0.000000 33.725357 -80.199412 9.691177 0.000115 -83.589194 0.000160 0.000000 0.000000 0.000000 17.925026 -5.334601 -3.476041 1.040098 2.300992 -7.202175 0.000000 0.000000 0.000000 19.116805 15.966952 80.656556 179.999950 70.014971 -179.999991 0.000000 0.000000 0.000000 
0.145496 31.475582 -5.352279 0.000000 0.000000 0.000000 -104.336132 -73.871324 -94.634593 -82.233784 17.992438 -4.309829 101.191165 12.099421 0.096903 40.544140 3.359143 -24.767791 -0.000000 0.000020 -0.000009 0.000000 0.000000 0.000000 -104.336132 -73.871324 -94.634593 -19.151965 -8.832558 -12.828694 66.938005 7.798259 -11.459169 -33.676251 5.274613 1.074749 -0.000444 -0.000001 -0.000001 0.000000 0.000000 0.000000 -104.336132 -73.871324 -94.634593 9.042851 -1.437045 -4.382713 17.406276 -5.558949 -2.975143 0.000000 0.000000 0.000000 0.000000 0.000000 0.000000 17.132163 -6.288936 -3.027428 -6.045324 12.725097 -9.319505 0.356094 51.224008 -13.690755 0.000000 0.000000 0.000000 17.132163 -6.288936 -3.027428 0.512525 -0.448803 12.753485 0.000000 0.000000 0.000000 36.124659 -81.963759 10.429301 -0.000050 -81.206585 -0.000007 0.000000 0.000000 0.000000 17.132163 -6.288936 -3.027428 1.172508 2.893629 -8.492155 0.000000 0.000000 0.000000 19.513330 15.461293 81.270570 179.999978 74.760819 -179.999991 0.000000 0.000000 0.000000 
0.212289 31.259945 -5.030298 0.000000 0.000000 0.000000 -96.757074 -75.466569 -87.624763 -80.922558 17.167074 -3.561758 99.255059 11.710242 0.242214 38.930026 5.018067 -25.575314 0.000002 -0.000011 -0.000013 0.000000 0.000000 0.000000 -96.757074 -75.466569 -87.624763 -20.301510 -9.279802 -13.360414 67.562264 8.035986 -11.272338 -34.505600 4.113744 1.657364 -0.129091 -0.000004 -0.000009 0.000000 0.000000 0.000000 -96.757074 -75.466569 -87.624763 8.724201 -2.102213 -4.033691 16.741757 -6.608743 -2.446087 0.000000 0.000000 0.000000 0.000000 0.000000 0.000000 16.421935 -7.314792 -2.537766 -5.702980 12.785192 -9.548946 -0.289364 51.713179 -13.477466 0.000000 0.000000 0.000000 16.421935 -7.314792 -2.537766 0.598624 -0.623101 12.009337 0.000000 0.000000 0.000000 41.134790 -83.681114 14.163375 0.000025 -79.192922 0.000050 0.000000 0.000000 0.000000 16.421935 -7.314792 -2.537766 1.395008 3.755582 -9.879422 0.000000 0.000000 0.000000 19.344832 14.808234 81.636402 180.000005 80.536851 179.999978 0.000000 0.000000 0.000000 
0.301767 31.051044 -4.631800 0.000000 0.000000 0.000000 -87.969688 -76.607443 -79.552026 -79.652184 15.670192 -2.101082 97.496381 11.071719 0.441920 36.992147 6.366442 -26.518112 -0.000026 -0.000010 0.000019 0.000000 0.000000 0.000000 -87.969688 -76.607443 -79.552026 -21.149723 -9.525221 -13.836454 67.899054 8.408893 -11.085542 -35.106442 2.691725 2.401014 -0.154278 -0.000006 -0.000001 0.000000 0.000000 0.000000 -87.969688 -76.607443 -79.552026 8.483268 -2.814296 -3.692450 16.210718 -7.664050 -1.931011 0.000000 0.000000 0.000000 0.000000 0.000000 0.000000 15.853960 -8.334844 -2.062971 -5.415902 12.828675 -9.592956 -1.016406 52.334719 -13.242320 0.000000 0.000000 0.000000 15.853960 -8.334844 -2.062971 0.654985 -0.686461 11.093098 0.000000 0.000000 0.000000 49.885052 -85.102231 22.250439 -0.000052 -78.071931 -0.000044 0.000000 0.000000 0.000000 15.853960 -8.334844 -2.062971 1.679805 4.728639 -10.925294 0.000000 0.000000 0.000000 18.774928 13.823732 81.676727 179.999704 87.267770 -179.999827 0.000000 0.000000 0.000000 
0.380624 30.821201 -4.180982 0.000000 0.000000 0.000000 -77.846412 -77.274786 -70.166991 -78.412710 13.635773 -0.003855 95.580301 10.220402 0.700898 35.034643 7.158609 -27.562378 0.000001 0.000008 -0.000007 0.000000 0.000000 0.000000 -77.846412 -77.274786 -70.166991 -21.755512 -9.768748 -14.495891 68.260446 8.937503 -10.906229 -35.828451 1.075570 3.212320 -0.074904 0.000009 -0.000008 0.000000 0.000000 0.000000 -77.846412 -77.274786 -70.166991 8.323851 -3.514239 -3.343847 15.836635 -8.657698 -1.486484 0.000000 0.000000 0.000000 0.000000 0.000000 0.000000 15.455514 -9.282822 -1.658769 -5.297368 12.842294 -9.364543 -1.890164 53.025228 -12.874349 0.000000 0.000000 0.000000 15.455514 -9.282822 -1.658769 0.699740 -0.734031 10.503356 0.000000 0.000000 0.000000 59.948584 -86.109014 32.357902 0.000040 -78.208391 0.000047 0.000000 0.000000 0.000000 15.455514 -9.282822 -1.658769 1.962516 5.630031 -11.147274 0.000000 0.000000 0.000000 18.144239 12.520193 81.152012 0.000009 85.185252 0.000046 0.000000 0.000000 0.000000 
0.419298 30.543587 -3.682521 0.000000 0.000000 0.000000 -67.070272 -77.495094 -60.112522 -77.245560 11.197778 2.703931 93.392831 9.139623 1.039836 32.946879 7.504946 -28.766773 -0.000015 -0.000001 0.000002 0.000000 0.000000 0.000000 -67.070272 -77.495094 -60.112522 -22.228948 -10.062335 -15.427591 68.872158 9.640050 -10.738408 -36.883711 -0.647326 4.026945 -0.102786 -0.000019 0.000005 0.000000 0.000000 0.000000 -67.070272 -77.495094 -60.112522 8.234059 -4.125623 -2.966956 15.605073 -9.540018 -1.141067 0.000000 0.000000 0.000000 0.000000 0.000000 0.000000 15.211492 -10.114948 -1.352312 -5.406458 12.822797 -8.864494 -2.909464 53.703042 -12.341616 0.000000 0.000000 0.000000 15.211492 -10.114948 -1.352312 0.757128 -0.907967 10.763079 0.000000 0.000000 0.000000 64.797807 -87.029874 38.008562 -0.000059 -79.489885 -0.000059 0.000000 0.000000 0.000000 15.211492 -10.114948 -1.352312 2.169643 6.322561 -10.253255 0.000000 0.000000 0.000000 17.787506 11.139755 79.641105 -0.000008 77.247992 0.000022 0.000000 0.000000 0.000000 
0.443917 30.228985 -3.127636 0.000000 0.000000 0.000000 -56.588261 -77.298870 -50.297448 -75.976859 8.618249 5.819886 90.497493 7.703477 1.543108 30.709514 7.976280 -30.231606 0.000014 -0.000007 0.000007 0.000000 0.000000 0.000000 -56.588261 -77.298870 -50.297448 -22.723479 -10.227290 -16.701402 69.644393 10.480679 -10.455245 -38.033888 -2.433676 4.888287 -0.129937 -0.000022 0.000003 0.000000 0.000000 0.000000 -56.588261 -77.298870 -50.297448 8.183846 -4.637179 -2.626646 15.466127 -10.284809 -0.880510 0.000000 0.000000 0.000000 0.000000 0.000000 0.000000 15.066841 -10.814599 -1.126765 -5.716894 12.784716 -8.198458 -3.959202 54.316191 -11.744978 0.000000 0.000000 0.000000 15.066841 -10.814599 -1.126765 0.850695 -1.290556 12.057072 0.000000 0.000000 0.000000 51.854704 -88.155810 26.662583 -0.000032 -81.445976 -0.000040 0.000000 0.000000 0.000000 15.066841 -10.814599 -1.126765 2.268010 6.754405 -8.439080 0.000000 0.000000 0.000000 17.945127 9.805556 76.914398 0.000024 69.820222 -0.000011 0.000000 0.000000 0.000000 
0.481805 29.890244 -2.507188 0.000000 0.000000 0.000000 -47.006697 -76.717839 -41.423397 -74.487174 6.019984 9.188697 86.595146 6.374100 2.231005 28.334758 8.528201 -31.810233 -0.000010 0.000009 0.000005 0.000000 0.000000 0.000000 -47.006697 -76.717839 -41.423397 -23.054552 -10.347534 -18.449002 70.188609 11.152691 -9.753818 -39.139477 -3.687246 6.023644 -0.160260 0.000024 0.000005 0.000000 0.000000 0.000000 -47.006697 -76.717839 -41.423397 8.132499 -5.060679 -2.392749 15.346957 -10.894037 -0.658764 0.000000 0.000000 0.000000 0.000000 0.000000 0.000000 14.941184 -11.393053 -0.932028 -6.122822 12.761231 -7.545155 -4.817531 54.877940 -11.289095 0.000000 0.000000 0.000000 14.941184 -11.393053 -0.932028 0.990679 -1.815338 13.986373 0.000000 0.000000 0.000000 -10.067794 -88.360511 -32.814001 -0.000019 -83.490457 0.000013 0.000000 0.000000 0.000000 14.941184 -11.393053 -0.932028 2.285660 6.959090 -6.432994 0.000000 0.000000 0.000000 18.726488 8.174910 73.341492 0.000004 64.071286 0.000004 0.000000 0.000000 0.000000 
0.513279 29.505077 -1.813215 0.000000 0.000000 0.000000 -38.751922 -75.813583 -33.959492 -73.186652 3.580846 12.620046 81.533020 5.520038 3.205213 26.370725 8.995425 -31.735671 -0.000005 -0.000005 -0.000000 0.000000 0.000000 0.000000 -38.751922 -75.813583 -33.959492 -23.222834 -10.764638 -20.569931 70.616342 11.754842 -9.089507 -40.268620 -4.529752 7.508558 -0.193269 -0.000009 0.000000 0.000000 0.000000 0.000000 -38.751922 -75.813583 -33.959492 8.036129 -5.410308 -2.321331 15.167890 -11.401079 -0.437765 0.000000 0.000000 0.000000 0.000000 0.000000 0.000000 14.746855 -11.890755 -0.723875 -6.483296 12.794879 -7.082043 -5.217357 55.467563 -11.184448 0.000000 0.000000 0.000000 14.746855 -11.890755 -0.723875 1.143035 -2.301481 15.776566 0.000000 0.000000 0.000000 -40.003008 -86.530615 -59.359972 -0.000240 -84.584448 -0.000190 0.000000 0.000000 0.000000 14.746855 -11.890755 -0.723875 2.272708 7.009443 -5.069588 0.000000 0.000000 0.000000 20.032585 5.723497 69.727899 0.000019 60.940095 -0.000006 0.000000 0.000000 0.000000 
